HIERARCHY
ROOT Hips
{
	OFFSET 0.000000 0.000000 0.000000
	CHANNELS 6 Xposition Yposition Zposition Yrotation Xrotation Zrotation
	JOINT Chest
	{
		OFFSET 0.000000 -0.009281 11.569106
		CHANNELS 3 Yrotation Xrotation Zrotation
		JOINT Chest2
		{
			OFFSET -0.000000 0.016865 9.269641
			CHANNELS 3 Yrotation Xrotation Zrotation
			JOINT Chest3
			{
				OFFSET -0.000000 0.000001 8.374491
				CHANNELS 3 Yrotation Xrotation Zrotation
				JOINT Chest4
				{
					OFFSET -0.000000 0.000001 8.374493
					CHANNELS 3 Yrotation Xrotation Zrotation
					JOINT Neck
					{
						OFFSET -0.000000 0.000002 12.152554
						CHANNELS 3 Yrotation Xrotation Zrotation
						JOINT Head
						{
							OFFSET -0.000000 0.040101 7.802319
							CHANNELS 3 Yrotation Xrotation Zrotation
							End Site
							{
								OFFSET -0.000000 0.020947 14.853096
							}
						}
					}
					JOINT RightCollar
					{
						OFFSET 2.894404 0.000001 6.791374
						CHANNELS 3 Yrotation Xrotation Zrotation
						JOINT RightShoulder
						{
							OFFSET 13.574684 0.000001 0.000000
							CHANNELS 3 Yrotation Xrotation Zrotation
							JOINT RightElbow
							{
								OFFSET 23.923903 0.000002 0.000000
								CHANNELS 3 Yrotation Xrotation Zrotation
								JOINT RightWrist
								{
									OFFSET 19.846718 0.012767 0.000000
									CHANNELS 3 Yrotation Xrotation Zrotation
									End Site
									{
										OFFSET 14.973145 0.000001 0.000000
									}
								}
							}
						}
					}
					JOINT LeftCollar
					{
						OFFSET -2.894404 0.000001 6.791374
						CHANNELS 3 Yrotation Xrotation Zrotation
						JOINT LeftShoulder
						{
							OFFSET -13.574684 -0.000001 0.000000
							CHANNELS 3 Yrotation Xrotation Zrotation
							JOINT LeftElbow
							{
								OFFSET -23.923903 -0.000002 0.000000
								CHANNELS 3 Yrotation Xrotation Zrotation
								JOINT LeftWrist
								{
									OFFSET -19.846718 0.012763 0.000000
									CHANNELS 3 Yrotation Xrotation Zrotation
									End Site
									{
										OFFSET -14.973145 -0.000001 0.000000
									}
								}
							}
						}
					}
				}
			}
		}
	}
	JOINT RightHip
	{
		OFFSET 9.469263 0.004643 0.045487
		CHANNELS 3 Yrotation Xrotation Zrotation
		JOINT RightKnee
		{
			OFFSET 0.000000 0.002661 -40.478676
			CHANNELS 3 Yrotation Xrotation Zrotation
			JOINT RightAnkle
			{
				OFFSET 0.000000 0.049106 -35.224068
				CHANNELS 3 Yrotation Xrotation Zrotation
				JOINT RightToe
				{
					OFFSET -0.000001 12.539529 -6.151390
					CHANNELS 3 Yrotation Xrotation Zrotation
					End Site
					{
						OFFSET -0.000001 5.044994 -1.291870
					}
				}
			}
		}
	}
	JOINT LeftHip
	{
		OFFSET -9.469263 0.004641 0.045487
		CHANNELS 3 Yrotation Xrotation Zrotation
		JOINT LeftKnee
		{
			OFFSET 0.000000 0.002661 -40.478676
			CHANNELS 3 Yrotation Xrotation Zrotation
			JOINT LeftAnkle
			{
				OFFSET 0.000000 0.049106 -35.224068
				CHANNELS 3 Yrotation Xrotation Zrotation
				JOINT LeftToe
				{
					OFFSET -0.000001 12.539529 -6.151390
					CHANNELS 3 Yrotation Xrotation Zrotation
					End Site
					{
						OFFSET -0.000001 5.044994 -1.291870
					}
				}
			}
		}
	}
}
MOTION
Frames: 14
Frame Time: 0.016667
10.667776 6.830627 82.997017 -7.100110 -2.733253 -111.160735 0.084528 -3.199695 0.656450 0.033701 -1.416349 0.272171 0.033700 -1.416350 0.272171 0.025904 -1.062247 0.204196 0.301574 -19.646882 -1.961972 -0.060174 -0.314870 -3.489220 10.632220 2.017827 -2.604744 76.574118 13.038701 3.460248 2.060240 -2.640905 6.473896 -58.160802 32.834082 23.502445 -9.978748 0.919346 0.216853 -78.225958 9.680656 -1.602079 -0.741672 5.334769 -3.472292 51.721006 28.836031 -24.367695 -0.964531 -6.608422 -2.852203 2.296777 -7.173871 -3.706958 -1.871366 5.787048 1.302160 0.126262 0.020497 0.044762 -0.768802 -8.256153 -0.049610 -0.139145 -5.085606 4.118190 1.484894 6.006403 1.486717 -0.103683 -0.052854 -0.038384 
10.663408 6.828942 82.996712 -7.107309 -2.732752 -111.166465 0.085295 -3.186445 0.650586 0.034106 -1.410320 0.269608 0.034106 -1.410321 0.269609 0.026201 -1.057725 0.202276 0.309314 -19.612173 -1.972027 -0.050018 -0.250402 -3.505602 10.665101 2.067939 -2.523236 76.076197 12.779679 3.275944 2.442301 -3.995355 6.203038 -58.102391 32.688305 22.735466 -10.017107 1.087138 0.144113 -77.849786 9.425083 -1.233885 -0.994239 4.089663 -3.574555 51.455141 28.873832 -23.175038 -0.972946 -6.551008 -2.841227 2.315437 -7.299079 -3.690872 -1.915485 5.830145 1.267611 0.128317 0.026175 0.045451 -0.773695 -8.202524 -0.095321 -0.141931 -5.211309 4.111996 1.508100 6.071852 1.541668 -0.104925 -0.051357 -0.040798 
10.660892 6.828434 82.996742 -7.107722 -2.733219 -111.166602 0.089618 -3.168745 0.648404 0.036249 -1.402595 0.268233 0.036249 -1.402596 0.268234 0.027800 -1.051930 0.201247 0.310657 -19.565285 -1.982523 -0.051989 -0.163498 -3.524943 10.695300 2.110159 -2.454761 75.552295 12.562844 3.089859 2.872074 -5.434881 5.954876 -57.945132 32.518886 21.881044 -10.043184 1.197324 0.071767 -77.475894 9.235690 -0.930213 -1.271567 2.831762 -3.705193 50.947023 28.692798 -21.953633 -0.977162 -6.493851 -2.829506 2.331100 -7.412763 -3.687004 -1.955735 5.865497 1.239995 0.130335 0.032787 0.046471 -0.777207 -8.141528 -0.149657 -0.143169 -5.341244 4.114847 1.533727 6.140195 1.578358 -0.108052 -0.050055 -0.043094 
10.661822 6.825804 82.997070 -7.101429 -2.730063 -111.166772 0.093608 -3.148706 0.651053 0.037504 -1.393400 0.269729 0.037504 -1.393399 0.269730 0.028742 -1.045033 0.202374 0.309779 -19.500777 -1.993360 -0.058576 -0.043959 -3.545841 10.725910 2.170324 -2.398770 74.958539 12.345893 2.886472 3.419794 -6.904235 5.714851 -57.813043 32.301546 20.909391 -10.068211 1.353588 0.010276 -77.068002 9.096617 -0.583653 -1.641471 1.491070 -3.871475 50.508095 28.407197 -20.593379 -0.980765 -6.440637 -2.835277 2.344671 -7.510262 -3.679244 -1.994946 5.897012 1.223716 0.131268 0.037040 0.047948 -0.779225 -8.079539 -0.190676 -0.149117 -5.464129 4.109053 1.561278 6.207592 1.625737 -0.109729 -0.048514 -0.043960 
10.667694 6.823348 82.997375 -7.088609 -2.724820 -111.169081 0.093955 -3.126470 0.661530 0.037979 -1.383223 0.274544 0.037979 -1.383223 0.274548 0.029104 -1.037401 0.205986 0.313046 -19.424284 -2.004955 -0.058146 0.097948 -3.567002 10.753884 2.220959 -2.354384 74.288641 12.058102 2.675366 4.079000 -8.335333 5.496710 -57.667950 32.002797 19.892149 -10.093768 1.525480 -0.058679 -76.565594 8.955844 -0.226295 -2.149976 0.105097 -4.013891 50.227954 28.149877 -19.117676 -0.986806 -6.391619 -2.851807 2.357428 -7.592006 -3.674322 -2.025369 5.926111 1.226118 0.127906 0.038263 0.047929 -0.779338 -8.022628 -0.210946 -0.158817 -5.568987 4.094101 1.590698 6.269716 1.662869 -0.110061 -0.047561 -0.044648 
10.677250 6.821081 82.997635 -7.070276 -2.715418 -111.166445 0.089489 -3.104418 0.678996 0.036261 -1.373491 0.282701 0.036261 -1.373491 0.282702 0.027830 -1.030101 0.212100 0.320422 -19.329975 -2.016949 -0.050803 0.273037 -3.587838 10.786956 2.261410 -2.318991 73.557012 11.642637 2.440569 4.826913 -9.621827 5.369674 -57.512795 31.616912 18.837317 -10.114119 1.702696 -0.132396 -75.981934 8.706372 0.130460 -2.795967 -1.245343 -4.126414 50.136915 28.053247 -17.579445 -0.995822 -6.346149 -2.862652 2.373265 -7.658689 -3.674293 -2.053007 5.951619 1.224066 0.122572 0.038077 0.046576 -0.785682 -7.969777 -0.239017 -0.161101 -5.655256 4.076788 1.616156 6.323113 1.709870 -0.108304 -0.046381 -0.044024 
10.691000 6.816318 82.998055 -7.048873 -2.704379 -111.158651 0.087662 -3.075343 0.695542 0.035374 -1.360349 0.290415 0.035374 -1.360349 0.290417 0.027176 -1.020245 0.217880 0.322718 -19.225198 -2.023972 -0.051463 0.467499 -3.601345 10.819227 2.263126 -2.257900 72.737621 11.123051 2.172941 5.709663 -10.755700 5.337837 -57.360400 31.178103 17.695422 -10.170281 1.890884 -0.242397 -75.283226 8.287254 0.541070 -3.538809 -2.492890 -4.221731 50.030927 28.235430 -16.031846 -0.999151 -6.307477 -2.865092 2.378228 -7.711824 -3.677950 -2.071717 5.975176 1.223249 0.116410 0.036709 0.046648 -0.784798 -7.925186 -0.264505 -0.170176 -5.722643 4.063836 1.637698 6.371010 1.722319 -0.103824 -0.046290 -0.043576 
10.706194 6.808417 82.998970 -7.023005 -2.692652 -111.141016 0.089122 -3.034599 0.701661 0.035881 -1.342552 0.293024 0.035881 -1.342552 0.293025 0.027554 -1.006897 0.219839 0.318142 -19.110244 -2.024798 -0.063008 0.680801 -3.605841 10.836001 2.219035 -2.187806 71.771894 10.481015 1.907599 6.776019 -11.942648 5.298242 -57.168250 30.796394 16.390540 -10.258585 2.077094 -0.376887 -74.471369 7.706450 1.022619 -4.360859 -3.671274 -4.362029 49.791939 28.704614 -14.528968 -0.996067 -6.271906 -2.873106 2.381160 -7.755163 -3.670939 -2.092069 5.994962 1.200574 0.110340 0.036790 0.046040 -0.781841 -7.884972 -0.273404 -0.177778 -5.774066 4.052723 1.653603 6.412729 1.725240 -0.096433 -0.046518 -0.041636 
10.721851 6.801594 83.000793 -6.996233 -2.680422 -111.115908 0.089406 -2.983225 0.695395 0.036286 -1.320556 0.290158 0.036286 -1.320555 0.290162 0.027841 -0.990399 0.217688 0.307233 -18.972775 -2.022584 -0.085770 0.935773 -3.607151 10.832480 2.169336 -2.154075 70.671325 9.619410 1.633244 7.975910 -13.192910 5.316969 -56.812824 30.361673 14.891769 -10.320627 2.196489 -0.485724 -73.633565 6.974514 1.502818 -5.257796 -4.787671 -4.531869 49.543672 29.227524 -13.195305 -0.996406 -6.239758 -2.883459 2.388921 -7.790626 -3.664110 -2.114156 6.008087 1.179536 0.106242 0.039638 0.045367 -0.782922 -7.847495 -0.273207 -0.172745 -5.814541 4.033001 1.661883 6.444861 1.728661 -0.089628 -0.044855 -0.041524 
10.737597 6.794906 83.004105 -6.977651 -2.672030 -111.083902 0.085867 -2.934516 0.680131 0.034689 -1.299830 0.283453 0.034689 -1.299830 0.283455 0.026619 -0.974857 0.212656 0.297206 -18.801013 -2.025057 -0.109336 1.254368 -3.617310 10.827621 2.175549 -2.134131 69.463160 8.543291 1.295003 9.364824 -14.122302 5.514550 -56.111995 29.724942 13.387945 -10.395178 2.293540 -0.641244 -72.664696 6.273858 2.042428 -6.267089 -6.076351 -4.725792 49.439088 29.710766 -11.945883 -0.989425 -6.222918 -2.888821 2.387660 -7.813143 -3.668787 -2.134131 6.013238 1.163034 0.104850 0.043931 0.044943 -0.785781 -7.825242 -0.265768 -0.161194 -5.840713 3.995592 1.664478 6.465846 1.738441 -0.080372 -0.040720 -0.041323 
10.753870 6.788119 83.008156 -6.959994 -2.663626 -111.049457 0.076146 -2.894963 0.667416 0.029848 -1.282982 0.277586 0.029848 -1.282982 0.277588 0.022968 -0.962223 0.208244 0.295271 -18.599546 -2.042001 -0.123585 1.628045 -3.651928 10.815814 2.165271 -2.099339 68.238508 7.317092 0.960002 10.979883 -14.494221 5.872862 -55.157018 29.089345 11.987088 -10.459893 2.418304 -0.825953 -71.553649 5.519493 2.597105 -7.415284 -7.478589 -4.912408 49.425472 30.150200 -10.708996 -0.984797 -6.212562 -2.893126 2.390841 -7.824715 -3.680740 -2.157109 6.012025 1.149282 0.104883 0.049027 0.043622 -0.784573 -7.809767 -0.252421 -0.154286 -5.854361 3.962482 1.661291 6.480506 1.733250 -0.067870 -0.036273 -0.040032 
10.769748 6.779780 83.012398 -6.934260 -2.651638 -111.015491 0.069850 -2.864318 0.662753 0.026189 -1.269748 0.275565 0.026189 -1.269747 0.275565 0.020213 -0.952298 0.206720 0.291104 -18.364859 -2.075105 -0.148253 2.063006 -3.717606 10.805466 2.103462 -2.030999 66.937862 6.128330 0.613940 12.829738 -14.716705 6.338707 -54.248658 28.711725 10.545125 -10.505446 2.498742 -1.026814 -70.333689 4.706219 3.044496 -8.754195 -8.853316 -5.081308 49.382534 30.611344 -9.552098 -0.977838 -6.202889 -2.895457 2.390609 -7.816199 -3.693593 -2.177825 6.001411 1.140664 0.103538 0.052545 0.042699 -0.779068 -7.793037 -0.250408 -0.154240 -5.851793 3.947752 1.654650 6.486603 1.711773 -0.054379 -0.031679 -0.038649 
10.783680 6.773279 83.016876 -6.891932 -2.635307 -110.985588 0.067731 -2.838764 0.659668 0.025563 -1.259099 0.274025 0.025563 -1.259099 0.274028 0.019736 -0.944313 0.205563 0.276439 -18.095068 -2.115043 -0.195730 2.562666 -3.800161 10.781860 2.029462 -1.939763 65.486816 4.948356 0.325621 14.894150 -15.045361 6.859807 -53.569812 28.447675 8.940527 -10.585841 2.617503 -1.269613 -69.023003 3.886993 3.488927 -10.226479 -10.184000 -5.255929 49.173482 31.080315 -8.547030 -0.969247 -6.178181 -2.887959 2.389987 -7.798325 -3.717318 -2.192621 5.984718 1.134596 0.098715 0.055150 0.041492 -0.776208 -7.763902 -0.264100 -0.149013 -5.836237 3.933946 1.645250 6.486292 1.706405 -0.041634 -0.029592 -0.037907 
10.796882 6.767393 83.021881 -6.844423 -2.617489 -110.960501 0.062457 -2.803145 0.665038 0.023866 -1.243935 0.275695 0.023866 -1.243934 0.275694 0.018460 -0.932941 0.206813 0.257249 -17.809057 -2.159115 -0.253821 3.092151 -3.892567 10.761823 1.994595 -1.870356 63.889132 3.675213 0.030853 17.129846 -15.376656 7.484415 -52.923041 28.055335 7.349375 -10.682363 2.721459 -1.550300 -67.533058 3.173053 3.942452 -11.906711 -11.607651 -5.454186 48.716311 31.516938 -7.653402 -0.961837 -6.151684 -2.866728 2.390543 -7.769455 -3.757568 -2.198626 5.960784 1.135554 0.089058 0.058409 0.039925 -0.775611 -7.737188 -0.269743 -0.139038 -5.803232 3.910399 1.632348 6.474726 1.706143 -0.029338 -0.026381 -0.036590 
